<svg width="138" height="40" viewBox="0 0 138 40" fill="none" xmlns="http://www.w3.org/2000/svg">
<path d="M132.628 0.801252C134.99 0.801252 136.912 2.685 136.912 5V35C136.912 37.315 134.99 39.1988 132.628 39.1988H5.10109C2.73928 39.1988 0.817449 37.315 0.817449 35V5C0.817449 2.685 2.73928 0.801252 5.10109 0.801252H132.628ZM132.628 2.11397e-06H5.10109C2.29676 2.11397e-06 0 2.25125 0 5V35C0 37.7487 2.29676 40 5.10109 40H132.628C135.433 40 137.729 37.7487 137.729 35V5C137.729 2.25125 135.433 2.11397e-06 132.628 2.11397e-06Z" fill="#A6A6A6"/>
<path d="M69.5122 21.7524C67.116 21.7524 65.1584 23.5399 65.1584 26.0061C65.1584 28.4524 67.116 30.2586 69.5122 30.2586C71.9135 30.2586 73.8711 28.4524 73.8711 26.0061C73.8711 23.5399 71.9135 21.7524 69.5122 21.7524ZM69.5122 28.5836C68.1974 28.5836 67.0662 27.5199 67.0662 26.0061C67.0662 24.4724 68.1974 23.4274 69.5122 23.4274C70.827 23.4274 71.9633 24.4724 71.9633 26.0061C71.9633 27.5199 70.827 28.5836 69.5122 28.5836ZM60.0127 21.7524C57.6114 21.7524 55.6589 23.5399 55.6589 26.0061C55.6589 28.4524 57.6114 30.2586 60.0127 30.2586C62.4128 30.2586 64.3665 28.4524 64.3665 26.0061C64.3665 23.5399 62.4128 21.7524 60.0127 21.7524ZM60.0127 28.5836C58.6966 28.5836 57.5617 27.5199 57.5617 26.0061C57.5617 24.4724 58.6966 23.4274 60.0127 23.4274C61.3275 23.4274 62.4587 24.4724 62.4587 26.0061C62.4587 27.5199 61.3275 28.5836 60.0127 28.5836ZM48.7087 23.0561V24.8636H53.1122C52.9834 25.8736 52.6391 26.6161 52.1111 27.1336C51.4684 27.7586 50.4673 28.4524 48.7087 28.4524C45.9988 28.4524 43.8767 26.3086 43.8767 23.6524C43.8767 20.9961 45.9988 18.8524 48.7087 18.8524C50.174 18.8524 51.2401 19.4136 52.027 20.1411L53.3265 18.8674C52.2259 17.8374 50.7619 17.0461 48.7087 17.0461C44.9926 17.0461 41.8694 20.0099 41.8694 23.6524C41.8694 27.2949 44.9926 30.2586 48.7087 30.2586C50.7173 30.2586 52.2259 29.6136 53.4119 28.4036C54.6273 27.2124 55.006 25.5374 55.006 24.1849C55.006 23.7649 54.9703 23.3786 54.9065 23.0561H48.7087ZM94.9322 24.4574C94.5738 23.5061 93.4682 21.7524 91.2161 21.7524C88.9843 21.7524 87.1263 23.4761 87.1263 26.0061C87.1263 28.3886 88.9652 30.2586 91.4303 30.2586C93.4235 30.2586 94.5738 29.0674 95.047 28.3736L93.5677 27.4074C93.0741 28.1149 92.4021 28.5836 91.4303 28.5836C90.4649 28.5836 89.7724 28.1499 89.3286 27.2949L95.1324 24.9411L94.9322 24.4574ZM89.0149 25.8736C88.9652 24.2336 90.3144 23.3936 91.2811 23.3936C92.0386 23.3936 92.6813 23.7649 92.8956 24.2961L89.0149 25.8736ZM84.2977 29.9999H86.2055V17.4999H84.2977V29.9999ZM81.1733 22.6999H81.1095C80.681 22.2024 79.8636 21.7524 78.8281 21.7524C76.655 21.7524 74.6681 23.6224 74.6681 26.0199C74.6681 28.4036 76.655 30.2586 78.8281 30.2586C79.8636 30.2586 80.681 29.8049 81.1095 29.2924H81.1733V29.9024C81.1733 31.5286 80.287 32.4024 78.8574 32.4024C77.6918 32.4024 76.9687 31.5774 76.6703 30.8836L75.0112 31.5624C75.4894 32.6899 76.7558 34.0774 78.8574 34.0774C81.0942 34.0774 82.9816 32.7874 82.9816 29.6486V22.0111H81.1733V22.6999ZM78.9913 28.5836C77.6765 28.5836 76.5759 27.5049 76.5759 26.0199C76.5759 24.5211 77.6765 23.4274 78.9913 23.4274C80.287 23.4274 81.3085 24.5211 81.3085 26.0199C81.3085 27.5049 80.287 28.5836 78.9913 28.5836ZM103.864 17.4999H99.3013V29.9999H101.204V25.2636H103.864C105.977 25.2636 108.05 23.7649 108.05 21.3811C108.05 18.9986 105.972 17.4999 103.864 17.4999ZM103.914 23.5249H101.204V19.2386H103.914C105.335 19.2386 106.146 20.3949 106.146 21.3811C106.146 22.3486 105.335 23.5249 103.914 23.5249ZM115.676 21.7286C114.301 21.7286 112.871 22.3236 112.284 23.6424L113.972 24.3361C114.335 23.6424 115.004 23.4174 115.71 23.4174C116.697 23.4174 117.698 23.9986 117.714 25.0249V25.1561C117.369 24.9611 116.632 24.6724 115.725 24.6724C113.907 24.6724 112.054 25.6536 112.054 27.4849C112.054 29.1599 113.543 30.2386 115.218 30.2386C116.498 30.2386 117.205 29.6724 117.649 29.0136H117.714V29.9799H119.551V25.1849C119.551 22.9686 117.863 21.7286 115.676 21.7286ZM115.446 28.5786C114.824 28.5786 113.957 28.2761 113.957 27.5199C113.957 26.5524 115.038 26.1811 115.974 26.1811C116.812 26.1811 117.205 26.3624 117.714 26.6011C117.564 27.7586 116.548 28.5786 115.446 28.5786ZM126.246 22.0024L124.059 27.4211H123.994L121.733 22.0024H119.681L123.079 29.5749L121.14 33.7886H123.128L128.363 22.0024H126.246ZM109.095 29.9999H111.003V17.4999H109.095V29.9999Z" fill="#A6A6A6"/>
<path d="M10.6465 7.53869C10.3468 7.84619 10.1733 8.32494 10.1733 8.94494V31.0599C10.1733 31.6799 10.3468 32.1587 10.6465 32.4662L10.7204 32.5337L23.3635 20.1462V19.8537L10.7204 7.46619L10.6465 7.53869Z" fill="url(#paint0_linear_226_909)" fill-opacity="0.5"/>
<path d="M27.5728 24.2773L23.3632 20.1461V19.8536L27.5779 15.7223L27.6723 15.7761L32.6637 18.5598C34.0882 19.3498 34.0882 20.6498 32.6637 21.4448L27.6723 24.2236L27.5728 24.2773Z" fill="url(#paint1_linear_226_909)" fill-opacity="0.5"/>
<path d="M27.6713 24.2237L23.3621 20L10.6451 32.4662C11.1183 32.9537 11.8898 33.0125 12.7672 32.525L27.6713 24.2237Z" fill="url(#paint2_linear_226_909)" fill-opacity="0.5"/>
<path d="M27.6713 15.7763L12.7672 7.475C11.8898 6.9925 11.1183 7.05125 10.6451 7.53875L23.3621 20L27.6713 15.7763Z" fill="url(#paint3_linear_226_909)" fill-opacity="0.5"/>
<path d="M49.4399 11.4492V12.3984H44.7865V11.4492H49.4399ZM45.1154 11.4492V13.9673H43.9707L43.9137 11.4492H45.1154ZM50.3391 11.4492L50.247 13.9717H49.1285V11.4492H50.3391ZM48.69 6V6.95361H45.6812V6H48.69ZM49.5803 6V12.3984H48.3786V6H49.5803ZM45.4882 6H46.6944L46.5321 8.60156C46.5087 9.02051 46.4648 9.39404 46.4005 9.72217C46.3391 10.0503 46.2631 10.3418 46.1724 10.5967C46.0818 10.8516 45.9809 11.0757 45.8698 11.269C45.7616 11.4595 45.6461 11.625 45.5233 11.7656C45.4034 11.9062 45.2792 12.0278 45.1505 12.1304C45.0248 12.23 44.9005 12.3193 44.7777 12.3984H44.1067V11.4492H44.3961C44.4809 11.376 44.5701 11.2734 44.6637 11.1416C44.7602 11.0098 44.8523 10.8354 44.94 10.6187C45.0306 10.4019 45.1096 10.1279 45.1768 9.79688C45.2441 9.46582 45.2923 9.06738 45.3216 8.60156L45.4882 6Z" fill="#A6A6A6"/>
<path d="M50.9792 10.0693V9.97705C50.9792 9.62842 51.0289 9.30762 51.1283 9.01465C51.2278 8.71875 51.3725 8.4624 51.5625 8.24561C51.7526 8.02881 51.9851 7.86035 52.2599 7.74023C52.5348 7.61719 52.8476 7.55566 53.1985 7.55566C53.5552 7.55566 53.871 7.61719 54.1458 7.74023C54.4236 7.86035 54.6575 8.02881 54.8476 8.24561C55.0376 8.4624 55.1824 8.71875 55.2818 9.01465C55.3812 9.30762 55.4309 9.62842 55.4309 9.97705V10.0693C55.4309 10.415 55.3812 10.7358 55.2818 11.0317C55.1824 11.3247 55.0376 11.5811 54.8476 11.8008C54.6575 12.0176 54.4251 12.186 54.1502 12.3062C53.8754 12.4263 53.5611 12.4863 53.2073 12.4863C52.8564 12.4863 52.5421 12.4263 52.2643 12.3062C51.9865 12.186 51.7526 12.0176 51.5625 11.8008C51.3725 11.5811 51.2278 11.3247 51.1283 11.0317C51.0289 10.7358 50.9792 10.415 50.9792 10.0693ZM52.1371 9.97705V10.0693C52.1371 10.2773 52.1576 10.4722 52.1985 10.6538C52.2394 10.8354 52.3023 10.9951 52.3871 11.1328C52.4719 11.2705 52.5815 11.3789 52.716 11.458C52.8535 11.5342 53.0172 11.5723 53.2073 11.5723C53.3944 11.5723 53.5552 11.5342 53.6897 11.458C53.8242 11.3789 53.9339 11.2705 54.0187 11.1328C54.1064 10.9951 54.1707 10.8354 54.2116 10.6538C54.2526 10.4722 54.273 10.2773 54.273 10.0693V9.97705C54.273 9.77197 54.2526 9.58008 54.2116 9.40137C54.1707 9.21973 54.1064 9.06006 54.0187 8.92236C53.9339 8.78174 53.8228 8.67188 53.6853 8.59277C53.5508 8.51074 53.3885 8.46973 53.1985 8.46973C53.0114 8.46973 52.8505 8.51074 52.716 8.59277C52.5815 8.67188 52.4719 8.78174 52.3871 8.92236C52.3023 9.06006 52.2394 9.21973 52.1985 9.40137C52.1576 9.58008 52.1371 9.77197 52.1371 9.97705Z" fill="#A6A6A6"/>
<path d="M58.4 11.5723C58.5638 11.5723 58.7099 11.54 58.8386 11.4756C58.9673 11.4111 59.0696 11.3203 59.1456 11.2031C59.2246 11.0859 59.267 10.9497 59.2728 10.7944H60.3649C60.3591 11.1167 60.2684 11.4053 60.093 11.6602C59.9175 11.915 59.6836 12.1172 59.3912 12.2666C59.1018 12.4131 58.7772 12.4863 58.4176 12.4863C58.0521 12.4863 57.7334 12.4248 57.4614 12.3018C57.1895 12.1787 56.9629 12.0073 56.7816 11.7876C56.6032 11.5679 56.4687 11.313 56.3781 11.0229C56.2904 10.7329 56.2465 10.4224 56.2465 10.0913V9.95068C56.2465 9.61963 56.2904 9.30908 56.3781 9.01904C56.4687 8.729 56.6032 8.47412 56.7816 8.25439C56.9629 8.03467 57.1895 7.86328 57.4614 7.74023C57.7334 7.61719 58.0506 7.55566 58.4132 7.55566C58.7962 7.55566 59.1325 7.63037 59.4219 7.77979C59.7143 7.9292 59.9424 8.14014 60.1061 8.4126C60.2728 8.68506 60.3591 9.00586 60.3649 9.375H59.2728C59.267 9.20508 59.2289 9.05273 59.1588 8.91797C59.0886 8.7832 58.9892 8.6748 58.8605 8.59277C58.7319 8.51074 58.5754 8.46973 58.3912 8.46973C58.1953 8.46973 58.0316 8.51074 57.9 8.59277C57.7714 8.6748 57.6705 8.7876 57.5974 8.93115C57.5272 9.07178 57.4775 9.22998 57.4483 9.40576C57.422 9.57861 57.4088 9.76025 57.4088 9.95068V10.0913C57.4088 10.2847 57.422 10.4692 57.4483 10.645C57.4775 10.8208 57.5272 10.979 57.5974 11.1196C57.6705 11.2573 57.7714 11.3672 57.9 11.4492C58.0316 11.5312 58.1983 11.5723 58.4 11.5723Z" fill="#A6A6A6"/>
<path d="M63.6191 7.64355V12.3984H62.4568V7.64355H63.6191ZM65.1629 7.64355V8.54883H60.9393V7.64355H65.1629Z" fill="#A6A6A6"/>
<path d="M67.4653 11.8711L68.7373 7.64355H69.9785L68.075 13.1191C68.0311 13.2363 67.9741 13.3638 67.9039 13.5015C67.8367 13.6392 67.746 13.7695 67.632 13.8926C67.518 14.0186 67.3747 14.1211 67.2022 14.2002C67.0326 14.2793 66.8265 14.3188 66.5838 14.3188C66.4785 14.3188 66.3849 14.3115 66.3031 14.2969C66.2212 14.2822 66.1349 14.2632 66.0443 14.2397V13.3696C66.0735 13.3726 66.1072 13.374 66.1452 13.374C66.1861 13.377 66.2212 13.3784 66.2504 13.3784C66.42 13.3784 66.5604 13.3579 66.6715 13.3169C66.7826 13.2788 66.8718 13.2158 66.939 13.1279C67.0092 13.043 67.0677 12.9316 67.1145 12.7939L67.4653 11.8711ZM66.8382 7.64355L67.9127 11.146L68.1013 12.3721L67.3031 12.5171L65.5882 7.64355H66.8382Z" fill="#A6A6A6"/>
<path d="M73.9037 7.64355V8.56201H71.5835V7.64355H73.9037ZM71.8905 7.64355V12.3984H70.7283V7.64355H71.8905ZM74.7809 7.64355V12.3984H73.6142V7.64355H74.7809Z" fill="#A6A6A6"/>
<path d="M79.2543 9.59473V10.5044H76.8201V9.59473H79.2543ZM77.1842 7.64355V12.3984H76.0219V7.64355H77.1842ZM80.0657 7.64355V12.3984H78.8991V7.64355H80.0657Z" fill="#A6A6A6"/>
<path d="M81.0918 10.0693V9.97705C81.0918 9.62842 81.1415 9.30762 81.241 9.01465C81.3404 8.71875 81.4851 8.4624 81.6752 8.24561C81.8652 8.02881 82.0977 7.86035 82.3725 7.74023C82.6474 7.61719 82.9602 7.55566 83.3111 7.55566C83.6678 7.55566 83.9836 7.61719 84.2585 7.74023C84.5362 7.86035 84.7702 8.02881 84.9602 8.24561C85.1503 8.4624 85.295 8.71875 85.3944 9.01465C85.4938 9.30762 85.5435 9.62842 85.5435 9.97705V10.0693C85.5435 10.415 85.4938 10.7358 85.3944 11.0317C85.295 11.3247 85.1503 11.5811 84.9602 11.8008C84.7702 12.0176 84.5377 12.186 84.2628 12.3062C83.988 12.4263 83.6737 12.4863 83.3199 12.4863C82.969 12.4863 82.6547 12.4263 82.3769 12.3062C82.0991 12.186 81.8652 12.0176 81.6752 11.8008C81.4851 11.5811 81.3404 11.3247 81.241 11.0317C81.1415 10.7358 81.0918 10.415 81.0918 10.0693ZM82.2497 9.97705V10.0693C82.2497 10.2773 82.2702 10.4722 82.3111 10.6538C82.3521 10.8354 82.4149 10.9951 82.4997 11.1328C82.5845 11.2705 82.6942 11.3789 82.8287 11.458C82.9661 11.5342 83.1298 11.5723 83.3199 11.5723C83.507 11.5723 83.6678 11.5342 83.8023 11.458C83.9368 11.3789 84.0465 11.2705 84.1313 11.1328C84.219 10.9951 84.2833 10.8354 84.3243 10.6538C84.3652 10.4722 84.3857 10.2773 84.3857 10.0693V9.97705C84.3857 9.77197 84.3652 9.58008 84.3243 9.40137C84.2833 9.21973 84.219 9.06006 84.1313 8.92236C84.0465 8.78174 83.9354 8.67188 83.7979 8.59277C83.6634 8.51074 83.5012 8.46973 83.3111 8.46973C83.124 8.46973 82.9632 8.51074 82.8287 8.59277C82.6942 8.67188 82.5845 8.78174 82.4997 8.92236C82.4149 9.06006 82.3521 9.21973 82.3111 9.40137C82.2702 9.58008 82.2497 9.77197 82.2497 9.97705Z" fill="#A6A6A6"/>
<path d="M91.315 10.3857H89.8107L89.8019 9.59912H91.0387C91.2229 9.59912 91.3735 9.58008 91.4905 9.54199C91.6074 9.50391 91.6937 9.44678 91.7492 9.37061C91.8077 9.29443 91.837 9.20215 91.837 9.09375C91.837 9 91.8194 8.91943 91.7843 8.85205C91.7492 8.78174 91.6966 8.72461 91.6264 8.68066C91.5592 8.63672 91.4729 8.60449 91.3677 8.58398C91.2653 8.56055 91.1455 8.54883 91.008 8.54883H90.223V12.3984H89.0607V7.64355H91.008C91.315 7.64355 91.5914 7.67139 91.837 7.72705C92.0826 7.77979 92.2916 7.86035 92.4642 7.96875C92.6367 8.07715 92.7682 8.21484 92.8589 8.38184C92.9524 8.5459 92.9992 8.73926 92.9992 8.96191C92.9992 9.1084 92.9671 9.24609 92.9027 9.375C92.8384 9.50391 92.7434 9.61816 92.6177 9.71777C92.4919 9.81738 92.337 9.89941 92.1528 9.96387C91.9685 10.0254 91.758 10.0635 91.5212 10.0781L91.315 10.3857ZM91.315 12.3984H89.4993L89.9291 11.4932H91.315C91.4846 11.4932 91.625 11.4727 91.7361 11.4316C91.8472 11.3877 91.9291 11.3247 91.9817 11.2427C92.0373 11.1606 92.065 11.061 92.065 10.9438C92.065 10.8296 92.0387 10.7314 91.9861 10.6494C91.9364 10.5645 91.856 10.5 91.7449 10.4561C91.6367 10.4092 91.4934 10.3857 91.315 10.3857H90.1177L90.1265 9.59912H91.5168L91.8238 9.91113C92.1396 9.93164 92.4013 9.99609 92.6089 10.1045C92.8165 10.21 92.9715 10.3447 93.0738 10.5088C93.1761 10.6699 93.2273 10.8472 93.2273 11.0405C93.2273 11.2661 93.1849 11.4639 93.1001 11.6338C93.0153 11.8037 92.891 11.9458 92.7273 12.0601C92.5636 12.1714 92.3633 12.2563 92.1264 12.3149C91.8896 12.3706 91.6191 12.3984 91.315 12.3984Z" fill="#A6A6A6"/>
<defs>
<linearGradient id="paint0_linear_226_909" x1="22.2409" y1="31.2902" x2="5.46188" y2="14.172" gradientUnits="userSpaceOnUse">
<stop stop-color="#00A0FF"/>
<stop offset="0.0066" stop-color="#00A1FF"/>
<stop offset="0.2601" stop-color="#00BEFF"/>
<stop offset="0.5122" stop-color="#00D2FF"/>
<stop offset="0.7604" stop-color="#00DFFF"/>
<stop offset="1" stop-color="#00E3FF"/>
</linearGradient>
<linearGradient id="paint1_linear_226_909" x1="34.5186" y1="19.9984" x2="9.83253" y2="19.9984" gradientUnits="userSpaceOnUse">
<stop stop-color="#FFE000"/>
<stop offset="0.4087" stop-color="#FFBD00"/>
<stop offset="0.7754" stop-color="#FFA500"/>
<stop offset="1" stop-color="#FF9C00"/>
</linearGradient>
<linearGradient id="paint2_linear_226_909" x1="25.3281" y1="17.7039" x2="2.57437" y2="-5.50988" gradientUnits="userSpaceOnUse">
<stop stop-color="#FF3A44"/>
<stop offset="1" stop-color="#C31162"/>
</linearGradient>
<linearGradient id="paint3_linear_226_909" x1="7.44401" y1="39.8238" x2="17.6046" y2="29.4579" gradientUnits="userSpaceOnUse">
<stop stop-color="#32A071"/>
<stop offset="0.0685" stop-color="#2DA771"/>
<stop offset="0.4762" stop-color="#15CF74"/>
<stop offset="0.8009" stop-color="#06E775"/>
<stop offset="1" stop-color="#00F076"/>
</linearGradient>
</defs>
</svg>
