<svg width="48" height="29" viewBox="0 0 48 29" fill="none" xmlns="http://www.w3.org/2000/svg">
<path d="M0 4C0 1.79086 1.79086 0 4 0H44C46.2091 0 48 1.79086 48 4V25C48 27.2091 46.2091 29 44 29H4C1.79086 29 0 27.2091 0 25V4Z" fill="#393939"/>
<path d="M24.1187 9.34098C24.9127 9.95451 25.5546 10.7378 25.9956 11.6316C26.4367 12.5254 26.6655 13.5062 26.6646 14.4998C26.6652 15.4932 26.4363 16.4736 25.9952 17.3671C25.5542 18.2605 24.9125 19.0435 24.1187 19.6568C23.3248 19.0434 22.6831 18.2602 22.242 17.3666C21.8009 16.473 21.5721 15.4924 21.5729 14.4989C21.5721 13.5054 21.8009 12.5247 22.242 11.6311C22.6831 10.7375 23.3248 9.95441 24.1187 9.34098ZM23.2655 8.77914C22.425 9.48537 21.7503 10.3628 21.2881 11.3509C20.8259 12.3389 20.5871 13.414 20.5883 14.5018C20.5871 15.5891 20.8257 16.6637 21.2876 17.6514C21.7495 18.6391 22.4237 19.5163 23.2636 20.2225C22.2489 20.7832 21.1029 21.0727 19.9394 21.0622C18.7759 21.0518 17.6354 20.7418 16.6313 20.163C15.6272 19.5842 14.7945 18.7568 14.216 17.763C13.6375 16.7692 13.3332 15.6437 13.3335 14.4983C13.3338 13.353 13.6386 12.2276 14.2177 11.2341C14.7967 10.2406 15.6299 9.41365 16.6342 8.83536C17.6386 8.25707 18.7792 7.94761 19.9428 7.93774C21.1063 7.92788 22.2512 8.21796 23.2655 8.77914ZM24.9739 20.2225C25.8137 19.5163 26.4879 18.6391 26.9498 17.6514C27.4117 16.6637 27.6503 15.5891 27.6492 14.5018C27.6503 13.414 27.4116 12.3389 26.9493 11.3509C26.4871 10.3628 25.8124 9.48537 24.9719 8.77914C25.9862 8.21796 27.1321 7.92788 28.2956 7.93774C29.4592 7.94761 30.5998 8.25707 31.6042 8.83536C32.6085 9.41365 33.4417 10.2406 34.0207 11.2341C34.5998 12.2276 34.9046 13.353 34.9049 14.4983C34.9052 15.6437 34.601 16.7692 34.0224 17.763C33.4439 18.7568 32.6112 19.5842 31.6071 20.163C30.603 20.7418 29.4625 21.0518 28.299 21.0622C27.1355 21.0727 25.9895 20.7832 24.9748 20.2225H24.9739Z" fill="#A6A6A6"/>
</svg>
