<svg width="48" height="29" viewBox="0 0 48 29" fill="none" xmlns="http://www.w3.org/2000/svg">
<path d="M0 4C0 1.79086 1.79086 0 4 0H44C46.2091 0 48 1.79086 48 4V25C48 27.2091 46.2091 29 44 29H4C1.79086 29 0 27.2091 0 25V4Z" fill="#393939"/>
<g clip-path="url(#clip0_226_939)">
<path d="M31.0861 13.4033V18.4376H33.8459V15.4543H36.9737C38.2892 15.445 39.4069 14.592 39.8301 13.4033H31.0861Z" fill="#A6A6A6"/>
<path d="M30.7181 9.25464C30.8791 11.3103 32.8017 12.9371 35.1476 12.9371C35.1568 12.9371 39.945 12.9371 39.945 12.9371C39.9818 12.7506 40.0002 12.5549 40.0002 12.3544C40.0002 10.6484 38.6433 9.26862 36.9645 9.25464H30.7181Z" fill="#A6A6A6"/>
<path d="M26.6332 12.8858C26.6654 12.8299 26.716 12.7973 26.7804 12.7973C26.8724 12.7973 26.9414 12.8718 26.946 12.9604V18.3909H29.7058V9.25464H26.946C26.5964 9.26862 26.2009 9.525 26.0537 9.84663L23.8596 14.6198C23.855 14.6385 23.8458 14.6571 23.8366 14.6758C23.8044 14.7224 23.7492 14.755 23.6848 14.755C23.5836 14.755 23.5008 14.6711 23.5008 14.5686V9.25464H20.741V18.3909H23.5008C23.8458 18.3722 24.2322 18.1158 24.3794 17.7989L26.6332 12.8998C26.6286 12.8951 26.6332 12.8905 26.6332 12.8858Z" fill="#A6A6A6"/>
<path d="M16.33 13.0443L14.7155 18.3909H12.7285L11.1186 13.0397C11.1048 12.9558 11.0312 12.8905 10.9392 12.8905C10.838 12.8905 10.7598 12.9744 10.7598 13.0723V18.3862H8V9.25H10.3688H11.0726C11.5786 9.25 12.1121 9.65088 12.2593 10.1403L13.6024 14.5919C13.6714 14.8156 13.7772 14.811 13.8462 14.5919L15.1893 10.1403C15.3365 9.64621 15.8701 9.25 16.376 9.25H17.0798H19.4486V18.3862H16.6888V13.0723C16.6888 13.0723 16.6888 13.0723 16.6888 13.0676C16.6888 12.9651 16.606 12.8858 16.5094 12.8858C16.4174 12.8905 16.3438 12.9558 16.33 13.0443Z" fill="#A6A6A6"/>
</g>
<defs>
<clipPath id="clip0_226_939">
<rect width="32" height="21" fill="white" transform="translate(8 4)"/>
</clipPath>
</defs>
</svg>
