<svg width="36" height="36" viewBox="0 0 36 36" fill="none" xmlns="http://www.w3.org/2000/svg">
<path d="M0 8C0 3.58172 3.58172 0 8 0H28C32.4183 0 36 3.58172 36 8V28C36 32.4183 32.4183 36 28 36H8C3.58172 36 0 32.4183 0 28V8Z" fill="#0094E4"/>
<path d="M17.3283 13.5118C15.4869 13.6502 13.71 14.2505 12.1619 15.2572C12.3643 14.4506 12.793 13.7185 13.3976 13.1474C14.0021 12.5762 14.7573 12.1897 15.5742 12.0334C15.7903 11.99 16.0135 11.9958 16.2271 12.0505C16.4407 12.1053 16.6392 12.2075 16.8078 12.3496C16.9764 12.4917 17.1107 12.67 17.2009 12.8712C17.291 13.0724 17.3346 13.2914 17.3283 13.5118ZM25.7585 13.4964C25.5165 13.1654 25.2096 12.8871 24.8565 12.6786C24.5033 12.4702 24.1114 12.3359 23.7046 12.2839C23.6527 11.8772 23.5184 11.4852 23.3099 11.1321C23.1014 10.7789 22.8232 10.472 22.4921 10.23C22.3223 10.1022 22.1203 10.0243 21.9087 10.0048C21.6971 9.98535 21.4842 10.0252 21.294 10.1199C21.1037 10.2145 20.9436 10.3603 20.8315 10.5408C20.7194 10.7214 20.6598 10.9296 20.6594 11.1421V14.663C15.6515 14.663 12.7941 15.6203 11.3078 18.1233C12.885 18.5353 14.3238 19.3605 15.4758 20.5139C16.6277 21.6673 17.4512 23.107 17.8613 24.6847C20.3669 23.1991 21.3256 20.3411 21.3256 15.3292L24.8465 15.3292C25.059 15.3287 25.2672 15.2691 25.4477 15.157C25.6282 15.0449 25.774 14.8848 25.8687 14.6946C25.9633 14.5043 26.0032 14.2915 25.9837 14.0799C25.9643 13.8682 25.8863 13.6662 25.7585 13.4964ZM22.7912 18.6602H22.4748C22.3743 19.5629 22.193 20.4548 21.9332 21.3251H22.4755C24.1323 21.3764 24.6646 18.7428 22.7912 18.6602ZM16.6295 25.263C15.0306 25.7214 12.2745 26.6907 10.7802 25.2084C10.5118 24.9408 10.3039 24.6189 10.1703 24.2643C10.0368 23.9097 9.98077 23.5306 10.006 23.1525C10.0678 21.8593 10.3102 20.5811 10.7262 19.3551C12.1684 19.6802 13.4888 20.4079 14.5338 21.4538C15.5788 22.4996 16.3055 23.8205 16.6295 25.263ZM13.3311 23.3237C13.3311 23.147 13.2609 22.9775 13.1359 22.8526C13.011 22.7277 12.8415 22.6575 12.6649 22.6575C12.4882 22.6575 12.3187 22.7277 12.1938 22.8526C12.0688 22.9775 11.9986 23.147 11.9986 23.3237C11.9986 23.5004 12.0688 23.6698 12.1938 23.7948C12.3187 23.9197 12.4882 23.9899 12.6649 23.9899C12.8415 23.9899 13.011 23.9197 13.1359 23.7948C13.2609 23.6698 13.3311 23.5004 13.3311 23.3237Z" fill="white"/>
</svg>
