<svg width="36" height="36" viewBox="0 0 36 36" fill="none" xmlns="http://www.w3.org/2000/svg">
<path d="M0 8C0 3.58172 3.58172 0 8 0H28C32.4183 0 36 3.58172 36 8V28C36 32.4183 32.4183 36 28 36H8C3.58172 36 0 32.4183 0 28V8Z" fill="#FC7D04"/>
<path d="M20.3337 18.2222V15.4183L18.6852 14.6614C16.8576 16.8359 16.1744 22.4999 11.7499 22.4999C11.2857 22.4999 10.8406 22.6842 10.5124 23.0124C10.1842 23.3406 9.99982 23.7858 9.99982 24.2499C9.99982 24.7141 10.1842 25.1592 10.5124 25.4874C10.8406 25.8156 11.2857 26 11.7499 26C18.3952 26 23.3332 22.1602 24.8498 19.4266L23.6919 18.2222H20.3337ZM24.4304 14.2104C25.4355 12.3404 24.9123 10.8269 24.3323 10.0931C24.3102 10.0656 24.2825 10.0432 24.2511 10.0272C24.2197 10.0112 24.1852 10.002 24.15 10.0003C24.1148 9.99856 24.0796 10.0043 24.0468 10.0171C24.0139 10.0299 23.9842 10.0495 23.9595 10.0747L23.2438 10.7934C23.2027 10.8352 23.1775 10.8899 23.1724 10.9483C23.1673 11.0066 23.1827 11.0649 23.216 11.1131C23.4304 11.4369 23.7488 12.2101 23.1722 13.3732C22.6089 13.127 22.0007 12.9997 21.3859 12.9995C20.5109 12.9995 19.6983 13.2663 19.0002 13.7054L21.3337 14.777V17.2221H24.1179L25.8267 18.9997C25.9286 18.6053 26.0005 18.1987 26.0005 17.7712C26.0011 17.1011 25.8618 16.4382 25.5914 15.8251C25.321 15.2119 24.9256 14.662 24.4304 14.2104Z" fill="white"/>
</svg>
