<svg width="40" height="40" viewBox="0 0 40 40" fill="none" xmlns="http://www.w3.org/2000/svg">
<path d="M0 8C0 3.58172 3.58172 0 8 0H32C36.4183 0 40 3.58172 40 8V32C40 36.4183 36.4183 40 32 40H8C3.58172 40 0 36.4183 0 32V8Z" fill="#393939"/>
<path d="M27.4654 12.1324C27.4654 12.1324 29.1306 11.4831 28.9918 13.06C28.9455 13.7093 28.5293 15.9818 28.2055 18.4398L27.0954 25.7211C27.0954 25.7211 27.0029 26.7878 26.1703 26.9733C25.3377 27.1588 24.0889 26.324 23.8576 26.1385C23.6726 25.9994 20.3886 23.9124 19.2323 22.8921C18.9085 22.6138 18.5384 22.0572 19.2785 21.408L24.1352 16.7702C24.6902 16.2137 25.2453 14.9151 22.9326 16.4919L16.457 20.8978C16.457 20.8978 15.717 21.3616 14.3294 20.9442L11.3229 20.0166C11.3229 20.0166 10.2128 19.321 12.1092 18.6253C16.7346 16.4455 22.4238 14.2194 27.4654 12.1324Z" fill="#A6A6A6"/>
</svg>
