<svg width="24" height="24" viewBox="0 0 24 24" fill="none" xmlns="http://www.w3.org/2000/svg">
<path fill-rule="evenodd" clip-rule="evenodd" d="M12 3.84999C10.2603 3.84999 8.85 5.2603 8.85 6.99999C8.85 8.73969 10.2603 10.15 12 10.15C13.7397 10.15 15.15 8.73969 15.15 6.99999C15.15 5.2603 13.7397 3.84999 12 3.84999ZM7.15 6.99999C7.15 4.32141 9.32142 2.14999 12 2.14999C14.6786 2.14999 16.85 4.32141 16.85 6.99999C16.85 9.67858 14.6786 11.85 12 11.85C9.32142 11.85 7.15 9.67858 7.15 6.99999ZM7.43038 15.7854C6.25399 16.3736 5.85 17.0289 5.85 17.5C5.85 17.9711 6.25399 18.6264 7.43038 19.2146C8.55593 19.7774 10.1703 20.15 12 20.15C13.8297 20.15 15.4441 19.7774 16.5696 19.2146C17.746 18.6264 18.15 17.9711 18.15 17.5C18.15 17.0289 17.746 16.3736 16.5696 15.7854C15.4441 15.2226 13.8297 14.85 12 14.85C10.1703 14.85 8.55593 15.2226 7.43038 15.7854ZM6.67012 14.2649C8.07807 13.5609 9.96366 13.15 12 13.15C14.0363 13.15 15.9219 13.5609 17.3299 14.2649C18.687 14.9434 19.85 16.0381 19.85 17.5C19.85 18.9619 18.687 20.0566 17.3299 20.7351C15.9219 21.4391 14.0363 21.85 12 21.85C9.96366 21.85 8.07807 21.4391 6.67012 20.7351C5.31301 20.0566 4.15 18.9619 4.15 17.5C4.15 16.0381 5.31301 14.9434 6.67012 14.2649Z" fill="#FFFFFF"/>
</svg>
