<svg width="48" height="29" viewBox="0 0 48 29" fill="none" xmlns="http://www.w3.org/2000/svg">
<path d="M0 4C0 1.79086 1.79086 0 4 0H44C46.2091 0 48 1.79086 48 4V25C48 27.2091 46.2091 29 44 29H4C1.79086 29 0 27.2091 0 25V4Z" fill="#393939"/>
<path d="M23.8442 9.85816L21.7071 20.1757H19.1208L21.2611 9.85816H23.8442ZM34.7239 16.5199L36.0843 12.6449L36.8685 16.5199H34.7239ZM37.6079 20.1757H40L37.913 9.85816H35.7055C35.7023 9.85816 35.6981 9.85816 35.6949 9.85816C35.2051 9.85816 34.7847 10.1677 34.6076 10.6072L34.6044 10.6149L30.7261 20.1757H33.4404L33.9803 18.6336H37.2974L37.6079 20.1757ZM30.8594 16.8074C30.8701 14.0834 27.2115 13.9336 27.2371 12.7165C27.2457 12.3464 27.586 11.9521 28.3329 11.8518C28.4716 11.8375 28.6316 11.8287 28.7938 11.8287C29.5524 11.8287 30.2715 12.0071 30.9117 12.3266L30.8829 12.3133L31.3364 10.1247C30.6183 9.83723 29.7871 9.66981 28.9186 9.6665H28.9176C26.3612 9.6665 24.5634 11.0709 24.5473 13.0789C24.5313 14.5637 25.8309 15.3909 26.8114 15.8865C27.8197 16.3921 28.1579 16.717 28.1526 17.1675C28.1462 17.8615 27.3502 18.1655 26.6055 18.1776C26.5714 18.1787 26.5297 18.1787 26.4892 18.1787C25.5599 18.1787 24.685 17.9375 23.921 17.5112L23.9499 17.5255L23.4815 19.7857C24.3201 20.1327 25.2921 20.3332 26.3099 20.3332C26.326 20.3332 26.342 20.3332 26.358 20.3332H26.3558C29.0723 20.3332 30.8488 18.9486 30.8584 16.804L30.8594 16.8074ZM20.1494 9.85816L15.9605 20.1757H13.227L11.1656 11.9399C11.1262 11.539 10.8882 11.2042 10.5575 11.0367L10.5511 11.0334C9.81702 10.6611 8.96346 10.3582 8.07042 10.1677L8 10.1556L8.06188 9.85706H12.462C13.0616 9.85706 13.5599 10.3098 13.6527 10.9013L13.6538 10.9079L14.7431 16.8789L17.434 9.85596L20.1494 9.85816Z" fill="#A6A6A6"/>
</svg>
