<svg width="40" height="40" viewBox="0 0 40 40" fill="none" xmlns="http://www.w3.org/2000/svg">
<path d="M0 8C0 3.58172 3.58172 0 8 0H32C36.4183 0 40 3.58172 40 8V32C40 36.4183 36.4183 40 32 40H8C3.58172 40 0 36.4183 0 32V8Z" fill="#393939"/>
<path d="M22.1106 19.5955C21.7449 19.4579 21.7449 18.9328 21.7222 18.5671C21.6308 17.2644 22.0879 15.2757 21.5394 14.4302C21.151 13.9269 19.2764 13.973 18.1339 14.0418C17.8135 14.0879 17.4251 14.1559 17.1509 14.2934C16.8766 14.4309 16.6023 14.6591 16.6023 14.8646C16.6023 15.1616 17.2884 15.1162 17.5392 15.5046C17.8135 15.9164 17.8135 16.8073 17.8135 17.5387C17.8135 18.3842 17.676 19.5048 17.3337 19.5501C16.8078 19.5728 16.5109 19.0469 16.2366 18.6585C15.688 17.9044 15.1394 16.9667 14.7277 16.0525C14.5221 15.5726 14.4073 15.0468 14.1103 14.8412C13.6532 14.5209 12.8304 14.4982 12.0302 14.5209C11.2988 14.5435 10.247 14.4521 10.0415 14.8866C9.88127 15.3664 10.2243 15.8235 10.4072 16.2126C11.3441 18.2467 12.3498 20.0299 13.5845 21.721C14.7277 23.2979 15.8014 24.5552 17.9042 25.2179C18.4989 25.4007 21.1042 25.9266 21.6301 25.2179C21.8129 24.9436 21.7676 24.3263 21.859 23.8691C21.9504 23.412 22.0645 22.9549 22.499 22.9322C22.8647 22.9095 23.0702 23.2291 23.2992 23.4581C23.5508 23.7097 23.7563 23.9152 23.9392 24.1441C24.3736 24.5786 24.8308 25.1725 25.3793 25.4015C26.1334 25.7218 27.2993 25.6304 28.3964 25.5843C29.288 25.5616 29.928 25.3788 29.9968 24.8529C30.0429 24.4411 29.585 23.8472 29.3107 23.5042C28.6246 22.6586 28.305 22.407 27.5275 21.6295C27.1845 21.2865 26.75 20.9208 26.75 20.5097C26.7273 20.2581 26.9329 20.0299 27.1157 19.7783C27.9159 18.5897 28.7161 17.7442 29.4475 16.5096C29.653 16.1439 30.1335 15.2984 29.9507 14.8866C29.7452 14.4294 28.602 14.5662 27.8932 14.5662C26.9789 14.5662 25.7904 14.4975 25.5614 14.6803C25.127 14.9773 24.9441 15.4578 24.7386 15.9149C24.2815 16.9667 23.6641 18.0405 23.0241 18.8406C22.7952 19.1149 22.3615 19.6861 22.1099 19.5947L22.1106 19.5955Z" fill="#A6A6A6"/>
</svg>
