<svg width="40" height="40" viewBox="0 0 40 40" fill="none" xmlns="http://www.w3.org/2000/svg">
<path d="M0 8C0 3.58172 3.58172 0 8 0H32C36.4183 0 40 3.58172 40 8V32C40 36.4183 36.4183 40 32 40H8C3.58172 40 0 36.4183 0 32V8Z" fill="#393939"/>
<path d="M20.375 10C15.1875 10 11 14.1875 11 19.375C11 21.5 11.6875 23.5 13 25.125L11.6875 29.125C11.625 29.375 11.6875 29.625 11.875 29.8125C11.9375 29.9375 12.125 30 12.25 30C12.3125 30 12.4375 30 12.5 29.9375L16.8125 28C17.9375 28.5 19.125 28.75 20.375 28.75C25.5625 28.75 29.75 24.5625 29.75 19.375C29.75 14.1875 25.5625 10 20.375 10ZM25.8125 22.8125C25.5625 23.5625 24.625 24.1875 23.8125 24.3125C23.625 24.375 23.4375 24.375 23.1875 24.375C22.6875 24.375 21.9375 24.25 20.625 23.6875C19.125 23.0625 17.625 21.75 16.4375 20.0625V20C16.0625 19.4375 15.375 18.375 15.375 17.25C15.375 15.875 16.0625 15.1875 16.3125 14.875C16.625 14.5625 17.0625 14.375 17.5625 14.375C17.6875 14.375 17.75 14.375 17.875 14.375C18.3125 14.375 18.625 14.5 18.9375 15.125L19.1875 15.625C19.375 16.125 19.625 16.6875 19.6875 16.75C19.875 17.125 19.875 17.4375 19.6875 17.75C19.625 17.9375 19.5 18.0625 19.375 18.1875C19.3125 18.3125 19.25 18.375 19.1875 18.375C19.125 18.4375 19.125 18.4375 19.0625 18.5C19.25 18.8125 19.625 19.375 20.125 19.8125C20.875 20.5 21.4375 20.6875 21.75 20.8125C21.875 20.6875 22 20.4375 22.1875 20.25L22.25 20.125C22.5625 19.6875 23.0625 19.5625 23.5625 19.75C23.8125 19.875 25.1875 20.5 25.1875 20.5L25.3125 20.5625C25.5 20.6875 25.75 20.75 25.875 21C26.125 21.5625 25.9375 22.375 25.8125 22.8125Z" fill="#A6A6A6"/>
</svg>
